<svg xmlns="http://www.w3.org/2000/svg" viewBox="0 0 256 256"><defs><linearGradient id="g" x1="0" y1="0" x2="1" y2="1"><stop offset="0" stop-color="#a78bfa"/><stop offset="1" stop-color="#6d28d9"/></linearGradient></defs><rect width="256" height="256" rx="56" fill="#0d1117"/><path d="M128 28C87 69 50 94 50 137c0 30 23 52 52 52 11 0 21-4 28-11-6 20-17 34-35 50h66c-18-16-29-30-35-50 7 7 17 11 28 11 29 0 52-22 52-52 0-43-37-68-78-109z" fill="url(#g)"/><path d="M96 111h64M96 136h45" stroke="#fff" stroke-width="12" stroke-linecap="round" opacity=".9"/></svg>