<svg viewBox="0 0 98 14" fill="none" xmlns="http://www.w3.org/2000/svg">
                        <path fill-rule="evenodd" clip-rule="evenodd" d="M66.8575 0C65.5059 3.05303e-08 64.1847 0.408339 63.0609 1.17339C61.937 1.93843 61.0611 3.02583 60.5438 4.29807C60.0265 5.57032 59.8911 6.97029 60.1546 8.32095C60.4182 9.67161 61.069 10.9123 62.0246 11.8862C62.9802 12.86 64.1978 13.5233 65.5234 13.7922C66.849 14.061 68.223 13.9233 69.4718 13.3965C70.7206 12.8697 71.7881 11.9775 72.5392 10.8326C73.2903 9.68772 73.6913 8.34163 73.6916 6.96453C73.6901 5.11815 72.9696 3.34782 71.6884 2.0421C70.4071 0.736372 68.6697 0.00194127 66.8575 0ZM66.8575 11.7488C65.9282 11.7488 65.0197 11.468 64.247 10.9419C63.4743 10.4158 62.8721 9.66807 62.5165 8.79324C62.1609 7.91841 62.068 6.95578 62.2494 6.02712C62.4308 5.09845 62.8784 4.24546 63.5357 3.57602C64.1929 2.90657 65.0303 2.45075 65.9418 2.2662C66.8533 2.08166 67.7981 2.17667 68.6566 2.53922C69.5151 2.90178 70.2488 3.51559 70.7649 4.30304C71.281 5.09048 71.5564 6.01618 71.5561 6.96306C71.5511 8.23102 71.0545 9.4456 70.1744 10.3421C69.2942 11.2385 68.102 11.7442 66.8575 11.7488V11.7488Z" fill="#c2c2c2"></path>
                        <path fill-rule="evenodd" clip-rule="evenodd" d="M90.693 2.52936V5.8738H96.4219V8.06873H90.693V11.3926H97.2638V13.57H88.5762V0.371094H97.2638V2.52936H90.693Z" fill="#c2c2c2"></path>
                        <path fill-rule="evenodd" clip-rule="evenodd" d="M85.8755 0.355469V13.5895H83.8753L77.9492 4.57231V13.5895H75.7949V0.355469H77.7261L77.9679 0.682435L83.7213 9.30965V0.355469H85.8755Z" fill="#c2c2c2"></path>
                        <path fill-rule="evenodd" clip-rule="evenodd" d="M58.9862 0.355469V2.55039H54.8676V13.5895H52.7133V2.55039H48.5947V0.355469H58.9862Z" fill="#c2c2c2"></path>
                        <path fill-rule="evenodd" clip-rule="evenodd" d="M47.5557 9.96933C47.5352 10.5492 47.3873 11.117 47.1228 11.6309C46.8583 12.1448 46.484 12.5916 46.0274 12.9384C45.138 13.607 44.0012 13.9325 42.7837 13.9325H42.7765C42.6802 13.9337 42.5839 13.9269 42.4887 13.912C41.1936 13.8636 39.9948 13.434 39.1112 12.5924C38.3655 11.889 37.8904 10.9376 37.7715 9.90922V9.87256V9.04855H39.8639L39.9214 9.75673C40.0099 10.266 40.2584 10.7322 40.6295 11.0851C41.0842 11.503 41.7404 11.7523 42.6312 11.786C43.522 11.8197 44.2271 11.6144 44.6962 11.2669C44.9106 11.1179 45.0867 10.9187 45.2099 10.6861C45.3331 10.4534 45.3997 10.1941 45.4043 9.92974V9.91801C45.4302 9.36232 45.2143 8.93272 44.643 8.54563C44.1062 8.18055 43.368 7.95035 42.66 7.72895L42.5333 7.68936L42.1419 7.575L41.8426 7.47676C41.1921 7.27442 40.3057 6.99144 39.5631 6.46654C38.6148 5.80821 38.0924 4.87716 38.1356 3.73205C38.1473 3.17941 38.2894 2.63777 38.5499 2.15289C38.8104 1.66801 39.1816 1.25414 39.6322 0.946234C40.5057 0.317227 41.7001 -0.00534079 42.942 0.0357133C44.9236 0.117821 46.567 1.14124 47.2592 2.87284L47.2664 2.89044L47.488 3.57076L45.4532 4.13965L45.2503 3.65434C44.8977 2.81126 44.0343 2.22624 42.8686 2.19838C41.9793 2.18079 41.3303 2.37286 40.9173 2.66611C40.7253 2.79318 40.5675 2.96695 40.4579 3.17173C40.3484 3.37651 40.2906 3.60586 40.2898 3.83908C40.2796 4.01131 40.3223 4.18252 40.4122 4.3288C40.553 4.52941 40.7371 4.69443 40.9504 4.81118C41.5015 5.14108 42.2757 5.39767 43.0413 5.6264L43.2457 5.68211H43.2543L43.3349 5.70851C44.0775 5.94163 45.0877 6.2598 45.9252 6.83456C47.0347 7.53688 47.6204 8.63214 47.5557 9.96933Z" fill="#c2c2c2"></path>
                        <path fill-rule="evenodd" clip-rule="evenodd" d="M29.5524 0.355473H25.2812V13.5895H29.5524C33.15 13.5895 36.0929 10.6205 36.0929 6.9813C36.0849 5.21993 35.3921 3.53358 34.1661 2.29167C32.9402 1.04975 31.2812 0.353514 29.5524 0.355473V0.355473ZM29.5524 11.4137H27.4168V2.53134H29.5524C30.7084 2.53134 31.8171 2.99925 32.6346 3.83213C33.4521 4.66501 33.9113 5.79464 33.9113 6.97251C33.9113 8.15038 33.4521 9.28001 32.6346 10.1129C31.8171 10.9458 30.7084 11.4137 29.5524 11.4137V11.4137Z" fill="#c2c2c2"></path>
                        <path fill-rule="evenodd" clip-rule="evenodd" d="M16.2102 2.53229V5.87673H21.9204V8.07166H16.2102V11.3956H22.7623V13.5729H14.0732V0.374023H22.7623V2.53229H16.2102Z" fill="#c2c2c2"></path>
                        <path fill-rule="evenodd" clip-rule="evenodd" d="M11.8413 13.5719H9.31L6.54701 8.95481H3.13212L1.86143 6.79947H7.12263C7.39892 6.79947 7.6725 6.74403 7.92776 6.6363C8.18302 6.52857 8.41495 6.37067 8.61032 6.17162C8.80568 5.97257 8.96066 5.73626 9.06639 5.47619C9.17212 5.21611 9.22654 4.93737 9.22654 4.65586C9.22654 4.37436 9.17212 4.09561 9.06639 3.83554C8.96066 3.57546 8.80568 3.33915 8.61032 3.1401C8.41495 2.94105 8.18302 2.78315 7.92776 2.67543C7.6725 2.5677 7.39892 2.51225 7.12263 2.51225H1.31171L0.0410156 0.375977H7.12263C8.08074 0.38053 9.00863 0.718095 9.75289 1.33286C10.4972 1.94762 11.0132 2.80277 11.2157 3.7569C11.4183 4.71104 11.2951 5.70703 10.8667 6.5802C10.4383 7.45336 9.73022 8.15141 8.85958 8.55893L11.8413 13.5719Z" fill="#c2c2c2"></path>
                        <path d="M0.431641 10.9326H3.02195V13.5718H0.431641V10.9326Z" fill="#E70000"></path>
                    </svg>