<svg xmlns="http://www.w3.org/2000/svg" viewBox="0 0 128 128"><defs><linearGradient id="g" x1="0" y1="0" x2="1" y2="1"><stop stop-color="#a855f7"/><stop offset="1" stop-color="#312e81"/></linearGradient></defs><rect width="128" height="128" rx="28" fill="#080b16"/><path d="M64 14C43 40 26 54 26 75c0 16 13 27 28 22-3 8-9 15-17 19h54c-8-4-14-11-17-19 15 5 28-6 28-22 0-21-17-35-38-61Z" fill="url(#g)"/><path d="M47 74c6 8 28 8 34 0" stroke="#d8b4fe" stroke-width="5" fill="none" stroke-linecap="round"/><circle cx="51" cy="62" r="5" fill="#f5f3ff"/><circle cx="77" cy="62" r="5" fill="#f5f3ff"/></svg>